<svg width="20" height="12" viewBox="0 0 20 12" fill="none" xmlns="http://www.w3.org/2000/svg">
<path d="M13.9696 11.45C13.7996 11.45 13.6196 11.38 13.4896 11.25C13.2196 10.98 13.2196 10.55 13.4896 10.29L17.5996 6.18003C17.7596 6.02003 17.7596 5.75006 17.5996 5.59006L13.4896 1.48002C13.2196 1.21002 13.2196 0.780057 13.4896 0.520057C13.7596 0.260057 14.1896 0.250057 14.4496 0.520057L18.5596 4.63004C19.2496 5.32004 19.2496 6.46006 18.5596 7.15006L14.4496 11.26C14.3196 11.39 14.1396 11.4601 13.9696 11.4601V11.45Z" fill="black"/>
<path d="M18.3997 6.56018H0.779663C0.399663 6.56018 0.0996094 6.25019 0.0996094 5.88019C0.0996094 5.51019 0.409663 5.2002 0.779663 5.2002H18.3997C18.7797 5.2002 19.0797 5.51019 19.0797 5.88019C19.0797 6.25019 18.7697 6.56018 18.3997 6.56018Z" fill="black"/>
</svg>
