<svg width="20" height="12" viewBox="0 0 20 12" fill="none" xmlns="http://www.w3.org/2000/svg">
<path d="M5.2101 0.331201C5.3801 0.331201 5.56008 0.401213 5.69008 0.531213C5.96008 0.801213 5.96008 1.23123 5.69008 1.49123L1.58009 5.60122C1.42009 5.76122 1.42009 6.03119 1.58009 6.19119L5.69008 10.3012C5.96008 10.5712 5.96008 11.0012 5.69008 11.2612C5.42008 11.5212 4.99006 11.5312 4.73006 11.2612L0.620071 7.15121C-0.0699287 6.46121 -0.0699286 5.32119 0.620072 4.63119L4.73006 0.521203C4.86006 0.391203 5.0401 0.321191 5.2101 0.321191L5.2101 0.331201Z" fill="black"/>
<path d="M0.780029 5.22107L18.4 5.22107C18.78 5.22107 19.0801 5.53106 19.0801 5.90106C19.0801 6.27106 18.77 6.58105 18.4 6.58105L0.780029 6.58105C0.40003 6.58105 0.100037 6.27106 0.100037 5.90106C0.100037 5.53106 0.410029 5.22107 0.780029 5.22107Z" fill="black"/>
</svg>
