<svg width="23" height="22" viewBox="0 0 23 22" fill="none" xmlns="http://www.w3.org/2000/svg">
<path d="M13.2397 21.6998H3.98969C2.29969 21.6998 0.929688 20.3298 0.929688 18.6398V3.55977C0.929688 1.87977 2.29969 0.509766 3.98969 0.509766H14.5297C14.9097 0.509766 15.2097 0.819774 15.2097 1.18977C15.2097 1.55977 14.8997 1.86977 14.5297 1.86977H3.98969C3.05968 1.86977 2.29968 2.62977 2.29968 3.55977V18.6398C2.29968 19.5698 3.05968 20.3298 3.98969 20.3298H13.2397C13.7197 20.3298 14.1797 20.2298 14.5997 20.0198C14.9497 19.8598 15.2597 19.6498 15.5297 19.3798L19.8097 15.1098C20.0697 14.8498 20.2897 14.5298 20.4497 14.1898C20.6497 13.7598 20.7597 13.2898 20.7597 12.8198V8.09978C20.7597 7.71978 21.0697 7.41977 21.4397 7.41977C21.8097 7.41977 22.1197 7.72978 22.1197 8.09978V12.8198C22.1197 13.4898 21.9697 14.1598 21.6797 14.7698C21.4597 15.2498 21.1497 15.6998 20.7697 16.0798L16.4897 20.3498C16.0997 20.7398 15.6597 21.0498 15.1697 21.2598C14.5797 21.5498 13.9297 21.6998 13.2297 21.6998H13.2397Z" fill="white"/>
<path d="M14.8988 21.3296C14.7688 21.3296 14.6388 21.2896 14.5288 21.2196C14.3388 21.0896 14.2188 20.8796 14.2188 20.6496V14.4896C14.2188 14.1096 14.5288 13.8096 14.8988 13.8096H21.0688C21.2988 13.8096 21.5188 13.9296 21.6388 14.1196C21.7688 14.3196 21.7788 14.5596 21.6788 14.7696C21.4488 15.2596 21.1388 15.6996 20.7588 16.0796L16.4788 20.3496C16.0888 20.7396 15.6488 21.0496 15.1588 21.2596C15.0688 21.2996 14.9788 21.3196 14.8788 21.3196L14.8988 21.3296ZM15.5788 15.1696V19.3496L19.7588 15.1696H15.5788Z" fill="white"/>
<path d="M7.07927 15.79C6.89927 15.79 6.72923 15.72 6.59923 15.59C6.46923 15.46 6.38928 15.27 6.39928 15.08L6.49925 12.65C6.49925 12.48 6.57927 12.32 6.69927 12.2L16.5693 2.32996C17.4793 1.41996 18.9592 1.41996 19.8692 2.32996C20.7792 3.23996 20.7792 4.71996 19.8692 5.62996L9.99925 15.5C9.87925 15.62 9.71924 15.69 9.54924 15.7L7.11925 15.8C7.11925 15.8 7.09928 15.8 7.08928 15.8L7.07927 15.79ZM7.84923 12.97L7.78923 14.4L9.21922 14.34L18.8993 4.65996C19.2793 4.27996 19.2793 3.66995 18.8993 3.28995C18.5193 2.90995 17.9093 2.90995 17.5293 3.28995L7.84923 12.97Z" fill="white"/>
</svg>
