<svg width="25" height="20" viewBox="0 0 25 20" fill="none" xmlns="http://www.w3.org/2000/svg">
<path d="M23.9599 19.6797H4.08992C2.19992 19.6797 0.669922 18.1397 0.669922 16.2597V0.85968C0.669922 0.47968 0.97993 0.179688 1.34993 0.179688C1.71993 0.179688 2.02992 0.48968 2.02992 0.85968V16.2597C2.02992 17.3997 2.94992 18.3197 4.08992 18.3197H23.9599C24.3399 18.3197 24.6399 18.6297 24.6399 18.9997C24.6399 19.3697 24.3299 19.6797 23.9599 19.6797Z" fill="white"/>
<path d="M5.4593 16.66C5.0793 16.66 4.7793 16.35 4.7793 15.98V10.72C4.7793 10.34 5.0893 10.04 5.4593 10.04C5.8293 10.04 6.1393 10.35 6.1393 10.72V15.98C6.1393 16.36 5.8293 16.66 5.4593 16.66Z" fill="white"/>
<path d="M9.57063 16.66C9.19063 16.66 8.89062 16.35 8.89062 15.98V8.17999C8.89062 7.79999 9.20063 7.5 9.57063 7.5C9.94063 7.5 10.2506 7.80999 10.2506 8.17999V15.98C10.2506 16.36 9.94063 16.66 9.57063 16.66Z" fill="white"/>
<path d="M13.6898 16.66C13.3098 16.66 13.0098 16.35 13.0098 15.98V10.72C13.0098 10.34 13.3198 10.04 13.6898 10.04C14.0598 10.04 14.3698 10.35 14.3698 10.72V15.98C14.3698 16.36 14.0598 16.66 13.6898 16.66Z" fill="white"/>
<path d="M17.7991 16.66C17.4191 16.66 17.1191 16.35 17.1191 15.98V8.17999C17.1191 7.79999 17.4291 7.5 17.7991 7.5C18.1691 7.5 18.4791 7.80999 18.4791 8.17999V15.98C18.4791 16.36 18.1691 16.66 17.7991 16.66Z" fill="white"/>
<path d="M13.6896 7.05998C13.5096 7.05998 13.3396 6.98997 13.2096 6.85997L9.57961 3.23L5.9496 6.85997C5.6796 7.12997 5.24961 7.12997 4.98961 6.85997C4.71961 6.58997 4.71961 6.15998 4.98961 5.89998L9.07961 1.80998C9.20961 1.66998 9.38961 1.58998 9.57961 1.58998C9.76961 1.58998 9.94961 1.66997 10.0796 1.79997L13.6996 5.42L18.7296 0.39C18.9996 0.12 19.4296 0.12 19.6896 0.39C19.9596 0.66 19.9596 1.08999 19.6896 1.34999L14.1796 6.85997C14.0496 6.98997 13.8796 7.05998 13.6996 7.05998H13.6896Z" fill="white"/>
</svg>
