<svg width="22" height="17" viewBox="0 0 22 17" fill="none" xmlns="http://www.w3.org/2000/svg">
<path d="M5.8989 16.9596C5.6289 16.9596 5.34889 16.9096 5.07889 16.8196C4.45889 16.5996 3.95891 16.1596 3.66891 15.5596L0.828888 9.67957C0.538888 9.11957 0.378906 8.45956 0.378906 7.79956C0.378906 6.65956 0.818896 5.59956 1.6189 4.79956C2.4189 3.99956 3.47889 3.55957 4.60889 3.55957H14.7189C15.0989 3.55957 15.3989 3.86956 15.3989 4.23956V11.3496C15.3989 11.7296 15.0889 12.0296 14.7189 12.0296H7.44891L8.10889 13.3896C8.39889 13.9896 8.4389 14.6596 8.2189 15.2896C7.9989 15.9096 7.55889 16.4096 6.95889 16.6996C6.61889 16.8696 6.24891 16.9496 5.87891 16.9496L5.8989 16.9596ZM4.6189 4.92957C3.8489 4.92957 3.1289 5.22956 2.5889 5.76956C2.0489 6.30956 1.7489 7.02956 1.7489 7.79956C1.7489 8.24956 1.84889 8.68958 2.04889 9.06958L4.8989 14.9596C5.0289 15.2296 5.2489 15.4296 5.5289 15.5196C5.8089 15.6196 6.10891 15.5996 6.37891 15.4696C6.64891 15.3396 6.8489 15.1196 6.9389 14.8396C7.0389 14.5596 7.01892 14.2596 6.88892 13.9896L5.7489 11.6496C5.6489 11.4396 5.65891 11.1896 5.78891 10.9896C5.90891 10.7896 6.1289 10.6696 6.3689 10.6696H14.0389V4.91959H4.60889L4.6189 4.92957Z" fill="white"/>
<path d="M14.7289 14.6894C14.3489 14.6894 14.0488 14.3794 14.0488 14.0094V1.57941C14.0488 1.19941 14.3589 0.899414 14.7289 0.899414C15.0989 0.899414 15.4088 1.20941 15.4088 1.57941V14.0094C15.4088 14.3894 15.0989 14.6894 14.7289 14.6894Z" fill="white"/>
<path d="M20.5981 8.47916H17.7581C17.3781 8.47916 17.0781 8.16913 17.0781 7.79913C17.0781 7.42913 17.3881 7.11914 17.7581 7.11914H20.5981C20.9781 7.11914 21.2781 7.42913 21.2781 7.79913C21.2781 8.16913 20.9681 8.47916 20.5981 8.47916Z" fill="white"/>
<path d="M17.7582 5.69958C17.5382 5.69958 17.3182 5.58956 17.1882 5.39956C16.9782 5.08956 17.0682 4.65956 17.3782 4.45956L19.3882 3.12957C19.6982 2.91957 20.1281 3.00957 20.3281 3.31957C20.5381 3.62957 20.4482 4.05957 20.1382 4.25957L18.1282 5.58956C18.0082 5.66956 17.8782 5.69958 17.7482 5.69958H17.7582Z" fill="white"/>
<path d="M19.7681 12.5892C19.6381 12.5892 19.5082 12.5492 19.3882 12.4792L17.3782 11.1492C17.0682 10.9392 16.9782 10.5192 17.1882 10.2092C17.3982 9.89922 17.8182 9.80922 18.1282 10.0192L20.1382 11.3492C20.4482 11.5592 20.5381 11.9792 20.3281 12.2892C20.1981 12.4892 19.9782 12.5892 19.7582 12.5892H19.7681Z" fill="white"/>
<path d="M6.37796 12.0397H2.34796C1.96796 12.0397 1.66797 11.7297 1.66797 11.3597C1.66797 10.9897 1.97796 10.6797 2.34796 10.6797H6.37796C6.75796 10.6797 7.05795 10.9897 7.05795 11.3597C7.05795 11.7297 6.74796 12.0397 6.37796 12.0397Z" fill="white"/>
</svg>
