<svg width="21" height="20" viewBox="0 0 21 20" fill="none" xmlns="http://www.w3.org/2000/svg">
<path d="M3.98047 13.3398C2.19047 13.3398 0.730469 11.8798 0.730469 10.0898C0.730469 8.29984 2.19047 6.83984 3.98047 6.83984C5.77047 6.83984 7.23047 8.29984 7.23047 10.0898C7.23047 11.8798 5.77047 13.3398 3.98047 13.3398ZM3.98047 8.19983C2.94047 8.19983 2.09052 9.04984 2.09052 10.0898C2.09052 11.1298 2.94047 11.9798 3.98047 11.9798C5.02047 11.9798 5.87048 11.1298 5.87048 10.0898C5.87048 9.04984 5.02047 8.19983 3.98047 8.19983Z" fill="white"/>
<path d="M17.0801 6.74023C15.2901 6.74023 13.8301 5.28023 13.8301 3.49023C13.8301 1.70023 15.2901 0.240234 17.0801 0.240234C18.8701 0.240234 20.3301 1.70023 20.3301 3.49023C20.3301 5.28023 18.8701 6.74023 17.0801 6.74023ZM17.0801 1.60022C16.0401 1.60022 15.1901 2.45023 15.1901 3.49023C15.1901 4.53023 16.0401 5.38025 17.0801 5.38025C18.1201 5.38025 18.97 4.53023 18.97 3.49023C18.97 2.45023 18.1201 1.60022 17.0801 1.60022Z" fill="white"/>
<path d="M17.0801 19.9404C15.2901 19.9404 13.8301 18.4804 13.8301 16.6904C13.8301 14.9004 15.2901 13.4404 17.0801 13.4404C18.8701 13.4404 20.3301 14.9004 20.3301 16.6904C20.3301 18.4804 18.8701 19.9404 17.0801 19.9404ZM17.0801 14.8004C16.0401 14.8004 15.1901 15.6504 15.1901 16.6904C15.1901 17.7304 16.0401 18.5804 17.0801 18.5804C18.1201 18.5804 18.97 17.7304 18.97 16.6904C18.97 15.6504 18.1201 14.8004 17.0801 14.8004Z" fill="white"/>
<path d="M6.27054 9.62059C6.02054 9.62059 5.78049 9.48059 5.66049 9.24059C5.49049 8.90059 5.63054 8.4906 5.96054 8.3206L14.4705 4.03062C14.8105 3.86062 15.2205 4.00061 15.3905 4.33061C15.5605 4.66061 15.4205 5.08059 15.0905 5.25059L6.58054 9.54057C6.48054 9.59057 6.38054 9.61058 6.27054 9.61058V9.62059Z" fill="white"/>
<path d="M14.7804 16.2101C14.6804 16.2101 14.5704 16.1901 14.4704 16.1401L5.96042 11.8501C5.62042 11.6801 5.49037 11.2701 5.66037 10.9301C5.83037 10.5901 6.24041 10.4601 6.58041 10.6301L15.0904 14.9201C15.4304 15.0901 15.5604 15.5001 15.3904 15.8401C15.2704 16.0801 15.0304 16.2201 14.7804 16.2201V16.2101Z" fill="white"/>
</svg>
