<svg width="23" height="18" viewBox="0 0 23 18" fill="none" xmlns="http://www.w3.org/2000/svg">
<path d="M11.0396 17.6598C9.94961 17.6598 8.85961 17.2498 8.02961 16.4198L3.69961 12.0898H0.77961C0.39961 12.0898 0.0996094 11.7798 0.0996094 11.4098C0.0996094 11.0398 0.40961 10.7298 0.77961 10.7298H3.97961C4.15961 10.7298 4.32961 10.7998 4.45961 10.9298L8.98961 15.4598C10.1196 16.5898 11.9496 16.5898 13.0796 15.4598L16.3296 12.2098L12.5196 8.39983C12.2496 8.12983 12.2496 7.6998 12.5196 7.4398C12.7896 7.1698 13.2196 7.1698 13.4796 7.4398L17.7696 11.7298C17.8996 11.8598 17.9696 12.0298 17.9696 12.2098C17.9696 12.3898 17.8996 12.5598 17.7696 12.6898L14.0396 16.4198C13.2096 17.2498 12.1196 17.6598 11.0296 17.6598H11.0396Z" fill="white"/>
<path d="M21.7588 12.8799H17.2888C17.1088 12.8799 16.9387 12.8099 16.8087 12.6799L12.1088 7.97992L11.4288 8.65991C10.8688 9.21991 10.1287 9.51996 9.34875 9.51996C8.56875 9.51996 7.81875 9.20991 7.26875 8.65991C6.11875 7.50991 6.11875 5.63993 7.26875 4.48993L10.5687 1.18994C11.1987 0.559941 12.0388 0.209961 12.9288 0.209961C13.8187 0.209961 14.6588 0.559941 15.2888 1.18994L16.4088 2.30994H21.7588C22.1388 2.30994 22.4388 2.61993 22.4388 2.98993V12.2C22.4388 12.58 22.1288 12.8799 21.7588 12.8799ZM17.5687 11.52H21.0687V3.67993H16.1188C15.9388 3.67993 15.7687 3.60992 15.6387 3.47992L14.3187 2.15991C13.9487 1.78991 13.4487 1.57996 12.9187 1.57996C12.3887 1.57996 11.8888 1.78991 11.5188 2.15991L8.21875 5.45996C7.59875 6.07996 7.59875 7.07995 8.21875 7.69995C8.51875 7.99995 8.91875 8.15991 9.33875 8.15991C9.75875 8.15991 10.1587 7.98995 10.4587 7.69995L11.6187 6.53992C11.8887 6.26992 12.3188 6.26992 12.5788 6.53992L17.5687 11.53V11.52Z" fill="white"/>
<path d="M10.9501 8.85948C10.7801 8.85948 10.6001 8.78947 10.4701 8.65947C10.2001 8.38947 10.2001 7.95951 10.4701 7.69951L13.3001 4.86949C13.5701 4.59949 14.0001 4.59949 14.2601 4.86949C14.5301 5.13949 14.5301 5.56951 14.2601 5.82951L11.4301 8.65947C11.3001 8.78947 11.1201 8.85948 10.9501 8.85948Z" fill="white"/>
<path d="M9.71938 3.68023C9.53938 3.68023 9.35938 3.61026 9.21938 3.46026L8.10938 2.27025C7.64937 1.78025 6.90937 1.69021 6.34937 2.04021L5.02937 2.87023C4.47937 3.22023 3.83937 3.40026 3.18937 3.40026H0.789375C0.409375 3.40026 0.109375 3.0902 0.109375 2.7202C0.109375 2.3502 0.419375 2.04021 0.789375 2.04021H3.18937C3.57937 2.04021 3.96937 1.9302 4.29937 1.7202L5.61937 0.890248C6.73937 0.190248 8.19937 0.380261 9.09937 1.34026L10.2094 2.53026C10.4694 2.80026 10.4494 3.24022 10.1794 3.49022C10.0494 3.61022 9.87937 3.67022 9.70937 3.67022L9.71938 3.68023Z" fill="white"/>
<path d="M13.5692 16.6095C13.3992 16.6095 13.2192 16.5395 13.0892 16.4095C12.8192 16.1395 12.8192 15.7095 13.0892 15.4495L15.5592 12.9795C16.4992 12.0395 17.7592 11.5195 19.0892 11.5195H21.7692C22.1492 11.5195 22.4492 11.8295 22.4492 12.1995C22.4492 12.5695 22.1392 12.8795 21.7692 12.8795H19.0892C18.1192 12.8795 17.2092 13.2595 16.5192 13.9395L14.0492 16.4095C13.9192 16.5395 13.7392 16.6095 13.5692 16.6095Z" fill="white"/>
</svg>
