<svg width="22" height="22" viewBox="0 0 22 22" fill="none" xmlns="http://www.w3.org/2000/svg">
<path d="M13.8495 21.2403H2.42946C1.84946 21.2403 1.29946 20.9803 0.929462 20.5203C0.559462 20.0603 0.419473 19.4603 0.549473 18.8703C1.32947 15.3403 4.51947 12.7803 8.13947 12.7803C11.7595 12.7803 14.9495 15.3403 15.7295 18.8703C15.8595 19.4503 15.7195 20.0503 15.3495 20.5203C14.9795 20.9803 14.4395 21.2403 13.8495 21.2403ZM8.13947 14.1503C5.15947 14.1503 2.51947 16.2603 1.87947 19.1703C1.83947 19.3503 1.87948 19.5303 1.98948 19.6703C2.04948 19.7503 2.18947 19.8803 2.41947 19.8803H13.8395C14.0695 19.8803 14.2095 19.7503 14.2695 19.6703C14.3795 19.5303 14.4195 19.3503 14.3795 19.1703C13.7395 16.2603 11.1095 14.1503 8.11946 14.1503H8.13947Z" fill="white"/>
<path d="M8.1389 10.9399C5.3789 10.9399 3.12891 8.68992 3.12891 5.92992C3.12891 3.16992 5.3789 0.919922 8.1389 0.919922C10.8989 0.919922 13.1489 3.16992 13.1489 5.92992C13.1489 8.68992 10.8989 10.9399 8.1389 10.9399ZM8.1389 2.27992C6.1289 2.27992 4.48891 3.91992 4.48891 5.92992C4.48891 7.93992 6.1289 9.57993 8.1389 9.57993C10.1489 9.57993 11.7889 7.93992 11.7889 5.92992C11.7889 3.91992 10.1489 2.27992 8.1389 2.27992Z" fill="white"/>
<path d="M17.2296 15.6502C16.8896 15.6502 16.5396 15.5202 16.2796 15.2602L13.8796 12.8602C13.0896 12.0702 13.0896 10.7802 13.8796 9.9802C14.6696 9.1902 15.9596 9.1902 16.7596 9.9802L17.2296 10.4502L17.6996 9.9802C18.4896 9.1902 19.7796 9.1902 20.5796 9.9802C21.3696 10.7702 21.3696 12.0602 20.5796 12.8602L18.1796 15.2602C17.9196 15.5202 17.5796 15.6502 17.2296 15.6502ZM15.3196 10.7502C15.1496 10.7502 14.9796 10.8202 14.8496 10.9502C14.5896 11.2102 14.5896 11.6402 14.8496 11.9002L17.2396 14.2902L19.6296 11.9002C19.8896 11.6402 19.8896 11.2102 19.6296 10.9502C19.3696 10.6902 18.9396 10.6902 18.6796 10.9502L17.7196 11.9102C17.4596 12.1702 17.0096 12.1702 16.7596 11.9102L15.7996 10.9502C15.6696 10.8202 15.4996 10.7502 15.3296 10.7502H15.3196Z" fill="white"/>
</svg>
