<svg width="21" height="24" viewBox="0 0 21 24" fill="none" xmlns="http://www.w3.org/2000/svg">
<path d="M19.5089 11.7299C19.1289 11.7299 18.8289 11.4199 18.8289 11.0499V8.27991H16.0589C15.6789 8.27991 15.3789 7.96991 15.3789 7.59991C15.3789 7.22991 15.6889 6.91992 16.0589 6.91992H18.9589C19.6389 6.91992 20.1889 7.4699 20.1889 8.1499V11.0499C20.1889 11.4299 19.8789 11.7299 19.5089 11.7299Z" fill="white"/>
<path d="M5.39928 17.2396C5.22928 17.2396 5.0493 17.1697 4.9193 17.0397C4.6493 16.7697 4.6493 16.3396 4.9193 16.0796L9.78929 11.2096C10.4993 10.4996 11.6593 10.4996 12.3793 11.2096L13.3293 12.1597C13.5093 12.3397 13.8093 12.3397 13.9893 12.1597L18.8693 7.27965C19.1393 7.00965 19.5693 7.00965 19.8293 7.27965C20.0993 7.54965 20.0993 7.97964 19.8293 8.23964L14.9493 13.1196C14.2393 13.8296 13.0793 13.8296 12.3593 13.1196L11.4093 12.1697C11.2293 11.9897 10.9293 11.9897 10.7493 12.1697L5.87929 17.0397C5.74929 17.1697 5.56928 17.2396 5.39928 17.2396Z" fill="white"/>
<path d="M19.5092 23.0797H5.16916C2.65916 23.0797 0.619141 21.0397 0.619141 18.5297V1.64972C0.619141 1.26972 0.929133 0.969727 1.29913 0.969727C1.66913 0.969727 1.97916 1.27972 1.97916 1.64972V18.5297C1.97916 20.2897 3.40916 21.7197 5.16916 21.7197H19.5092C19.8892 21.7197 20.1891 22.0297 20.1891 22.3997C20.1891 22.7697 19.8792 23.0797 19.5092 23.0797Z" fill="white"/>
</svg>
