<svg width="16" height="18" viewBox="0 0 16 18" fill="none" xmlns="http://www.w3.org/2000/svg">
<path d="M8.03015 12.4197C6.17015 12.4197 4.66016 10.9097 4.66016 9.04968C4.66016 7.18968 6.17015 5.67969 8.03015 5.67969C9.89015 5.67969 11.4001 7.18968 11.4001 9.04968C11.4001 10.9097 9.89015 12.4197 8.03015 12.4197ZM8.03015 7.04968C6.92015 7.04968 6.02014 7.94969 6.02014 9.05969C6.02014 10.1697 6.92015 11.0697 8.03015 11.0697C9.14015 11.0697 10.0402 10.1697 10.0402 9.05969C10.0402 7.94969 9.14015 7.04968 8.03015 7.04968Z" fill="white"/>
<path d="M8.6105 17.4402H7.44052C6.90052 17.4402 6.41052 17.1201 6.19052 16.6201L5.54052 15.1602C4.97052 14.9302 4.45053 14.6301 3.98053 14.2701L2.38052 14.4301C1.84052 14.4901 1.3205 14.2202 1.0505 13.7502L0.470518 12.7401C0.200518 12.2701 0.230504 11.6802 0.550504 11.2502L1.49051 9.96014C1.45051 9.64014 1.42053 9.34014 1.42053 9.05014C1.42053 8.76014 1.44053 8.46016 1.48053 8.16016L0.540525 6.86014C0.220525 6.42014 0.190508 5.84015 0.460508 5.37015L1.04053 4.36014C1.31053 3.89014 1.84051 3.63015 2.37051 3.68015L3.96051 3.85016C4.44051 3.48016 4.96053 3.18016 5.51053 2.95016L6.17053 1.48016C6.39053 0.980164 6.88053 0.660156 7.42053 0.660156H8.59051C9.13051 0.660156 9.62051 0.980164 9.84051 1.48016L10.4905 2.94016C11.0605 3.17016 11.5805 3.47014 12.0505 3.83014L13.6505 3.67017C14.1905 3.61017 14.7105 3.88016 14.9805 4.35016L15.5605 5.36014C15.8305 5.83014 15.8005 6.42016 15.4805 6.85016L14.5405 8.14017C14.5805 8.46017 14.6105 8.76014 14.6105 9.05014C14.6105 9.34014 14.5905 9.64015 14.5505 9.94016L15.4905 11.2401C15.8105 11.6801 15.8405 12.2602 15.5705 12.7302L14.9905 13.7401C14.7205 14.2101 14.2005 14.4802 13.6605 14.4202L12.0705 14.2502C11.5905 14.6202 11.0705 14.9201 10.5205 15.1501L9.8605 16.6201C9.6405 17.1201 9.1505 17.4402 8.6105 17.4402ZM3.98053 12.8902C4.28053 12.8902 4.5805 12.9901 4.8305 13.1801C5.2005 13.4701 5.62051 13.7102 6.06051 13.8902C6.40051 14.0302 6.6605 14.2802 6.8005 14.6002L7.45053 16.0602H8.62051L9.27051 14.6002C9.41051 14.2802 9.68053 14.0202 10.0105 13.8902C10.4505 13.7102 10.8605 13.4701 11.2405 13.1801C11.5305 12.9601 11.8805 12.8602 12.2305 12.8902L13.8205 13.0602L14.4105 12.0501L13.4705 10.7602C13.2605 10.4702 13.1705 10.1102 13.2205 9.75015C13.2505 9.51015 13.2705 9.27014 13.2705 9.05014C13.2705 8.83014 13.2505 8.59016 13.2205 8.35016C13.1705 7.99016 13.2605 7.63015 13.4705 7.34015L14.4105 6.05014L13.8305 5.03015L12.2405 5.20016C11.8905 5.24016 11.5405 5.14016 11.2505 4.91016C10.8805 4.62016 10.4605 4.38016 10.0205 4.20016C9.68051 4.06016 9.42052 3.81014 9.28052 3.49014L8.63052 2.03015H7.46051L6.81051 3.49014C6.67051 3.81014 6.40052 4.07016 6.07052 4.20016C5.63052 4.38016 5.22051 4.62016 4.84051 4.91016C4.55051 5.13016 4.20052 5.23017 3.85052 5.20016L2.26053 5.03015L1.67053 6.04016L2.6105 7.33014C2.8205 7.62014 2.9105 7.98015 2.8605 8.34015C2.8305 8.58015 2.81051 8.82016 2.81051 9.04016C2.81051 9.26016 2.8305 9.50014 2.8605 9.74014C2.9105 10.1001 2.8205 10.4602 2.6105 10.7502L1.67053 12.0402L2.25052 13.0602L3.84051 12.8902C3.84051 12.8902 3.94053 12.8902 3.98053 12.8902Z" fill="white"/>
</svg>
