<svg width="19" height="18" viewBox="0 0 19 18" fill="none" xmlns="http://www.w3.org/2000/svg">
<path d="M12.6497 17.27H4.52966C4.14966 17.27 3.84961 16.96 3.84961 16.59V9.93C3.84961 9.83 3.86962 9.73001 3.91962 9.63001L7.60962 2.01002C7.94962 1.29002 8.55964 0.750019 9.31964 0.480019C10.0796 0.210019 10.8996 0.259993 11.6296 0.609993C12.3496 0.949993 12.8897 1.56002 13.1497 2.32002C13.4197 3.08002 13.3697 3.90001 13.0197 4.63001L12.0197 6.69001H14.5197C15.7197 6.69001 16.8096 7.25 17.4996 8.24C18.1896 9.22 18.3596 10.44 17.9496 11.57L16.9996 14.21C16.3496 16.04 14.5996 17.27 12.6596 17.27H12.6497ZM5.20966 15.91H12.6497C14.0197 15.91 15.2497 15.05 15.7097 13.76L16.6596 11.11C16.9096 10.4 16.8096 9.64 16.3796 9.02C15.9496 8.4 15.2696 8.05 14.5096 8.05H10.9296C10.6996 8.05 10.4796 7.93002 10.3496 7.73002C10.2296 7.53002 10.2096 7.28001 10.3096 7.07001L11.7797 4.03001C11.9697 3.63001 11.9996 3.18 11.8496 2.77C11.7096 2.36 11.4097 2.03 11.0197 1.84C10.6197 1.64 10.1696 1.62002 9.75964 1.76002C9.34964 1.90002 9.01965 2.2 8.82965 2.59L5.20966 10.07V15.89V15.91Z" fill="white"/>
<path d="M4.5293 17.2704H1.2793C0.589297 17.2704 0.0292969 16.7104 0.0292969 16.0204V7.94043C0.0292969 7.25043 0.589297 6.69043 1.2793 6.69043H4.5293C4.9093 6.69043 5.20929 7.00042 5.20929 7.37042V16.5804C5.20929 16.9604 4.8993 17.2604 4.5293 17.2604V17.2704ZM1.38928 15.9104H3.84924V8.06042H1.38928V15.9104Z" fill="white"/>
</svg>
